<svg xmlns="http://www.w3.org/2000/svg" width="1394" height="704" viewBox="0 0 1394 704">
  <g id="Grupo_1069597" data-name="Grupo 1069597" transform="translate(-65 -399)">
    <rect id="Rectángulo_374426" data-name="Rectángulo 374426" width="581" height="67" transform="translate(493 399)" fill="#025157"/>
    <rect id="Rectángulo_374427" data-name="Rectángulo 374427" width="302" height="51" transform="translate(124 507)" fill="#73d8c0"/>
    <rect id="Rectángulo_374428" data-name="Rectángulo 374428" width="302" height="51" transform="translate(1141 507)" fill="#73d8c0"/>
    <g id="Rectángulo_374429" data-name="Rectángulo 374429" transform="translate(65 998)" fill="none" stroke="#73d8c0" stroke-width="2">
      <rect width="165" height="40" stroke="none"/>
      <rect x="1" y="1" width="163" height="38" fill="none"/>
    </g>
    <g id="Rectángulo_374458" data-name="Rectángulo 374458" transform="translate(313 998)" fill="none" stroke="#73d8c0" stroke-width="2">
      <rect width="193" height="40" stroke="none"/>
      <rect x="1" y="1" width="191" height="38" fill="none"/>
    </g>
    <g id="Rectángulo_374459" data-name="Rectángulo 374459" transform="translate(172 1063)" fill="none" stroke="#73d8c0" stroke-width="2">
      <rect width="193" height="40" stroke="none"/>
      <rect x="1" y="1" width="191" height="38" fill="none"/>
    </g>
    <g id="Rectángulo_374450" data-name="Rectángulo 374450" transform="translate(1054 807)" fill="none" stroke="#73d8c0" stroke-width="2">
      <rect width="152" height="34" stroke="none"/>
      <rect x="1" y="1" width="150" height="32" fill="none"/>
    </g>
    <g id="Rectángulo_374461" data-name="Rectángulo 374461" transform="translate(1054 865)" fill="none" stroke="#73d8c0" stroke-width="2">
      <rect width="152" height="34" stroke="none"/>
      <rect x="1" y="1" width="150" height="32" fill="none"/>
    </g>
    <g id="Rectángulo_374455" data-name="Rectángulo 374455" transform="translate(1252 634)" fill="none" stroke="#73d8c0" stroke-width="2">
      <rect width="124" height="35" stroke="none"/>
      <rect x="1" y="1" width="122" height="33" fill="none"/>
    </g>
    <g id="Rectángulo_374456" data-name="Rectángulo 374456" transform="translate(1252 680)" fill="none" stroke="#73d8c0" stroke-width="2">
      <rect width="124" height="35" stroke="none"/>
      <rect x="1" y="1" width="122" height="33" fill="none"/>
    </g>
    <g id="Rectángulo_374457" data-name="Rectángulo 374457" transform="translate(1314 729)" fill="none" stroke="#73d8c0" stroke-width="2">
      <rect width="145" height="35" stroke="none"/>
      <rect x="1" y="1" width="143" height="33" fill="none"/>
    </g>
    <g id="Rectángulo_374462" data-name="Rectángulo 374462" transform="translate(1314 778)" fill="none" stroke="#73d8c0" stroke-width="2">
      <rect width="145" height="35" stroke="none"/>
      <rect x="1" y="1" width="143" height="33" fill="none"/>
    </g>
    <g id="Rectángulo_374463" data-name="Rectángulo 374463" transform="translate(1314 827)" fill="none" stroke="#73d8c0" stroke-width="2">
      <rect width="145" height="35" stroke="none"/>
      <rect x="1" y="1" width="143" height="33" fill="none"/>
    </g>
    <g id="Rectángulo_374464" data-name="Rectángulo 374464" transform="translate(1314 876)" fill="none" stroke="#73d8c0" stroke-width="2">
      <rect width="145" height="35" stroke="none"/>
      <rect x="1" y="1" width="143" height="33" fill="none"/>
    </g>
    <g id="Rectángulo_374431" data-name="Rectángulo 374431" transform="translate(172 585)" fill="none" stroke="#73d8c0" stroke-width="2">
      <rect width="198" height="39" stroke="none"/>
      <rect x="1" y="1" width="196" height="37" fill="none"/>
    </g>
    <rect id="Rectángulo_374436" data-name="Rectángulo 374436" width="172" height="39" transform="translate(404 585)" fill="#f5947a"/>
    <rect id="Rectángulo_374437" data-name="Rectángulo 374437" width="289" height="39" transform="translate(634 585)" fill="#f5947a"/>
    <rect id="Rectángulo_374438" data-name="Rectángulo 374438" width="183" height="39" transform="translate(969 585)" fill="#f5947a"/>
    <g id="Rectángulo_374432" data-name="Rectángulo 374432" transform="translate(172 656)" fill="none" stroke="#73d8c0" stroke-width="2">
      <rect width="198" height="62" stroke="none"/>
      <rect x="1" y="1" width="196" height="60" fill="none"/>
    </g>
    <g id="Rectángulo_374433" data-name="Rectángulo 374433" transform="translate(172 733)" fill="none" stroke="#73d8c0" stroke-width="2">
      <rect width="198" height="62" stroke="none"/>
      <rect x="1" y="1" width="196" height="60" fill="none"/>
    </g>
    <g id="Rectángulo_374434" data-name="Rectángulo 374434" transform="translate(172 805)" fill="none" stroke="#73d8c0" stroke-width="2">
      <rect width="198" height="62" stroke="none"/>
      <rect x="1" y="1" width="196" height="60" fill="none"/>
    </g>
    <g id="Rectángulo_374435" data-name="Rectángulo 374435" transform="translate(172 882)" fill="none" stroke="#73d8c0" stroke-width="2">
      <rect width="198" height="79" stroke="none"/>
      <rect x="1" y="1" width="196" height="77" fill="none"/>
    </g>
    <g id="Rectángulo_374439" data-name="Rectángulo 374439" transform="translate(445 659)" fill="none" stroke="#f5947a" stroke-width="2">
      <rect width="159" height="38" stroke="none"/>
      <rect x="1" y="1" width="157" height="36" fill="none"/>
    </g>
    <g id="Rectángulo_374460" data-name="Rectángulo 374460" transform="translate(391 659)" fill="none" stroke="#f5947a" stroke-width="2">
      <rect width="38" height="207" stroke="none"/>
      <rect x="1" y="1" width="36" height="205" fill="none"/>
    </g>
    <g id="Rectángulo_374443" data-name="Rectángulo 374443" transform="translate(634 695)" fill="none" stroke="#f5947a" stroke-width="2">
      <rect width="289" height="38" stroke="none"/>
      <rect x="1" y="1" width="287" height="36" fill="none"/>
    </g>
    <g id="Rectángulo_374447" data-name="Rectángulo 374447" transform="translate(1008 671)" fill="none" stroke="#f5947a" stroke-width="2">
      <rect width="183" height="38" stroke="none"/>
      <rect x="1" y="1" width="181" height="36" fill="none"/>
    </g>
    <g id="Rectángulo_374454" data-name="Rectángulo 374454" transform="translate(1214 585)" fill="none" stroke="#f5947a" stroke-width="3">
      <rect width="183" height="38" stroke="none"/>
      <rect x="1.5" y="1.5" width="180" height="35" fill="none"/>
    </g>
    <g id="Rectángulo_374452" data-name="Rectángulo 374452" transform="translate(1008 921)" fill="none" stroke="#f5947a" stroke-width="2">
      <rect width="183" height="38" stroke="none"/>
      <rect x="1" y="1" width="181" height="36" fill="none"/>
    </g>
    <g id="Rectángulo_374453" data-name="Rectángulo 374453" transform="translate(1008 977)" fill="none" stroke="#f5947a" stroke-width="2">
      <rect width="183" height="38" stroke="none"/>
      <rect x="1" y="1" width="181" height="36" fill="none"/>
    </g>
    <g id="Rectángulo_374448" data-name="Rectángulo 374448" transform="translate(1008 720)" fill="none" stroke="#f5947a" stroke-width="2">
      <rect width="183" height="60" stroke="none"/>
      <rect x="1" y="1" width="181" height="58" fill="none"/>
    </g>
    <g id="Rectángulo_374444" data-name="Rectángulo 374444" transform="translate(634 763)" fill="none" stroke="#f5947a" stroke-width="2">
      <rect width="289" height="43" stroke="none"/>
      <rect x="1" y="1" width="287" height="41" fill="none"/>
    </g>
    <g id="Rectángulo_374445" data-name="Rectángulo 374445" transform="translate(634 834)" fill="none" stroke="#f5947a" stroke-width="2">
      <rect width="289" height="60" stroke="none"/>
      <rect x="1" y="1" width="287" height="58" fill="none"/>
    </g>
    <g id="Rectángulo_374446" data-name="Rectángulo 374446" transform="translate(634 925)" fill="none" stroke="#f5947a" stroke-width="2">
      <rect width="289" height="60" stroke="none"/>
      <rect x="1" y="1" width="287" height="58" fill="none"/>
    </g>
    <g id="Rectángulo_374440" data-name="Rectángulo 374440" transform="translate(445 705)" fill="none" stroke="#f5947a" stroke-width="2">
      <rect width="159" height="38" stroke="none"/>
      <rect x="1" y="1" width="157" height="36" fill="none"/>
    </g>
    <g id="Rectángulo_374441" data-name="Rectángulo 374441" transform="translate(445 757)" fill="none" stroke="#f5947a" stroke-width="2">
      <rect width="159" height="38" stroke="none"/>
      <rect x="1" y="1" width="157" height="36" fill="none"/>
    </g>
    <g id="Rectángulo_374442" data-name="Rectángulo 374442" transform="translate(445 809)" fill="none" stroke="#f5947a" stroke-width="2">
      <rect width="159" height="57" stroke="none"/>
      <rect x="1" y="1" width="157" height="55" fill="none"/>
    </g>
    <text id="El_modisto_la_moda_y_el_cliente" data-name="El modisto, la moda y el cliente" transform="translate(519 446)" fill="#fff" font-size="38" font-family="Roboto-Black, Roboto" font-weight="800"><tspan x="0" y="0">El modisto, la moda y el cliente</tspan></text>
    <text id="Fundamentos_de_moda" data-name="Fundamentos de moda" transform="translate(148 541)" fill="#12263f" font-size="24" font-family="Roboto-Black, Roboto" font-weight="800"><tspan x="0" y="0">Fundamentos de moda</tspan></text>
    <text id="Esquemas_de_color" data-name="Esquemas de color" transform="translate(1292 541)" fill="#12263f" font-size="24" font-family="Roboto-Black, Roboto" font-weight="800"><tspan x="-102.574" y="0">Esquemas de color</tspan></text>
    <text id="Sistema_moda" data-name="Sistema moda" transform="translate(271 611)" fill="#12263f" font-size="18" font-family="Roboto-Black, Roboto" font-weight="800"><tspan x="-58.122" y="0">Sistema moda</tspan></text>
    <text id="Gamas_de_mercado_en_el_sistema_moda" data-name="Gamas de mercado
en el sistema moda" transform="translate(271 684)" fill="#12263f" font-size="18" font-family="Roboto-Black, Roboto" font-weight="800"><tspan x="-78.042" y="0">Gamas de mercado</tspan><tspan x="-78.93" y="20">en el sistema moda</tspan></text>
    <text id="Universos_de_vestuario" data-name="Universos
de vestuario" transform="translate(271 832)" fill="#12263f" font-size="18" font-family="Roboto-Black, Roboto" font-weight="800"><tspan x="-40.707" y="0">Universos</tspan><tspan x="-50.186" y="20">de vestuario</tspan></text>
    <text id="Clasificación_de_universos_de_vestuario" data-name="Clasificación 
de universos 
de vestuario" transform="translate(271 908)" fill="#12263f" font-size="18" font-family="Roboto-Black, Roboto" font-weight="800"><tspan x="-54.936" y="0">Clasificación </tspan><tspan x="-54.246" y="20">de universos </tspan><tspan x="-50.186" y="40">de vestuario</tspan></text>
    <text id="Factores_que_influyen_en_la_moda" data-name="Factores que influyen
en la moda" transform="translate(271 761)" fill="#12263f" font-size="18" font-family="Roboto-Black, Roboto" font-weight="800"><tspan x="-87.5" y="0">Factores que influyen</tspan><tspan x="-44.354" y="20">en la moda</tspan></text>
    <text id="Ocasiones_de_uso" data-name="Ocasiones de uso" transform="translate(146 1024)" fill="#12263f" font-size="16" font-family="Roboto-Regular, Roboto"><tspan x="-63.254" y="0">Ocasiones de uso</tspan></text>
    <text id="Perfiles_de_consumidor" data-name="Perfiles de consumidor" transform="translate(408 1024)" fill="#12263f" font-size="16" font-family="Roboto-Regular, Roboto"><tspan x="-81.82" y="0">Perfiles de consumidor</tspan></text>
    <text id="Macrotendencia" transform="translate(525 684)" fill="#12263f" font-size="16" font-family="Roboto-Regular, Roboto"><tspan x="-57.625" y="0">Macrotendencia</tspan></text>
    <text id="Determinar_las_tipologías" data-name="Determinar las tipologías" transform="translate(779 720)" fill="#12263f" font-size="16" font-family="Roboto-Regular, Roboto"><tspan x="-88.898" y="0">Determinar las tipologías</tspan></text>
    <text id="Fibras_textiles" data-name="Fibras textiles" transform="translate(1100 696)" fill="#12263f" font-size="16" font-family="Roboto-Regular, Roboto"><tspan x="-49.535" y="0">Fibras textiles</tspan></text>
    <text id="Aprestos" transform="translate(1310 657)" fill="#12263f" font-size="16" font-family="Roboto-Regular, Roboto"><tspan x="-31.926" y="0">Aprestos</tspan></text>
    <text id="Acabados" transform="translate(1310 703)" fill="#12263f" font-size="16" font-family="Roboto-Regular, Roboto"><tspan x="-35.797" y="0">Acabados</tspan></text>
    <text id="Limpieza" transform="translate(1387 752)" fill="#12263f" font-size="16" font-family="Roboto-Regular, Roboto"><tspan x="-32.242" y="0">Limpieza</tspan></text>
    <text id="Diseño_y_color" data-name="Diseño y color" transform="translate(1387 801)" fill="#12263f" font-size="16" font-family="Roboto-Regular, Roboto"><tspan x="-50.234" y="0">Diseño y color</tspan></text>
    <text id="Textura" transform="translate(1387 850)" fill="#12263f" font-size="16" font-family="Roboto-Regular, Roboto"><tspan x="-26.516" y="0">Textura</tspan></text>
    <text id="Desempeño" transform="translate(1387 899)" fill="#12263f" font-size="16" font-family="Roboto-Regular, Roboto"><tspan x="-42.563" y="0">Desempeño</tspan></text>
    <text id="Hilos_e_hilatura" data-name="Hilos e hilatura" transform="translate(1100 946)" fill="#12263f" font-size="16" font-family="Roboto-Regular, Roboto"><tspan x="-53.039" y="0">Hilos e hilatura</tspan></text>
    <text id="Tejidos" transform="translate(1100 1002)" fill="#12263f" font-size="16" font-family="Roboto-Regular, Roboto"><tspan x="-25.676" y="0">Tejidos</tspan></text>
    <text id="Clasificación_de_las_fibras" data-name="Clasificación
de las fibras" transform="translate(1100 742)" fill="#12263f" font-size="16" font-family="Roboto-Regular, Roboto"><tspan x="-45.641" y="0">Clasificación</tspan><tspan x="-43.074" y="24">de las fibras</tspan></text>
    <text id="Fibras_naturales" data-name="Fibras naturales" transform="translate(1130 830)" fill="#12263f" font-size="16" font-family="Roboto-Regular, Roboto"><tspan x="-56.855" y="0">Fibras naturales</tspan></text>
    <text id="Fibras_químicas" data-name="Fibras químicas" transform="translate(1130 888)" fill="#12263f" font-size="16" font-family="Roboto-Regular, Roboto"><tspan x="-56.41" y="0">Fibras químicas</tspan></text>
    <text id="Definir_el_tipo_de_silueta_de_la_prenda" data-name="Definir el tipo de silueta de la prenda" transform="translate(779 791)" fill="#12263f" font-size="16" font-family="Roboto-Regular, Roboto"><tspan x="-128.676" y="0">Definir el tipo de silueta de la prenda</tspan></text>
    <text id="Visualizar_las_partes_de_las_prendas_por_separado" data-name="Visualizar las partes
de las prendas por separado" transform="translate(779 858)" fill="#12263f" font-size="16" font-family="Roboto-Regular, Roboto"><tspan x="-71.922" y="0">Visualizar las partes</tspan><tspan x="-100.789" y="24">de las prendas por separado</tspan></text>
    <text id="Realizar_cuadro_metamórfico_de_prendas" data-name="Realizar cuadro
metamórfico de prendas" transform="translate(779 949)" fill="#12263f" font-size="16" font-family="Roboto-Regular, Roboto"><tspan x="-55.055" y="0">Realizar cuadro</tspan><tspan x="-87.148" y="24">metamórfico de prendas</tspan></text>
    <text id="Se_sigue_el_siguiente_proceso:" data-name="Se sigue el siguiente proceso:" transform="translate(779 665)" fill="#12263f" font-size="16" font-family="Roboto-Regular, Roboto"><tspan x="-105.43" y="0">Se sigue el siguiente proceso:</tspan></text>
    <text id="Clasificación" transform="translate(415 760) rotate(-90)" fill="#12263f" font-size="16" font-family="Roboto-Regular, Roboto"><tspan x="-45.641" y="0">Clasificación</tspan></text>
    <text id="Metatendencias" transform="translate(525 729)" fill="#12263f" font-size="16" font-family="Roboto-Regular, Roboto"><tspan x="-57.223" y="0">Metatendencias</tspan></text>
    <text id="Microtendencias" transform="translate(525 781)" fill="#12263f" font-size="16" font-family="Roboto-Regular, Roboto"><tspan x="-59.34" y="0">Microtendencias</tspan></text>
    <text id="Difusión_de_tendencias" data-name="Difusión 
de tendencias" transform="translate(525 830)" fill="#12263f" font-size="16" font-family="Roboto-Regular, Roboto"><tspan x="-31.398" y="0">Difusión </tspan><tspan x="-49.766" y="24">de tendencias</tspan></text>
    <text id="Cliente_o_consumidor" data-name="Cliente o consumidor" transform="translate(271 1089)" fill="#12263f" font-size="16" font-family="Roboto-Regular, Roboto"><tspan x="-75.551" y="0">Cliente o consumidor</tspan></text>
    <text id="Tendencias" transform="translate(490 610)" fill="#12263f" font-size="20" font-family="Roboto-Black, Roboto" font-weight="800"><tspan x="-52.036" y="0">Tendencias</tspan></text>
    <text id="Tipologías_de_prendas" data-name="Tipologías de prendas" transform="translate(779 613)" fill="#12263f" font-size="20" font-family="Roboto-Black, Roboto" font-weight="800"><tspan x="-100.21" y="0">Tipologías de prendas</tspan></text>
    <text id="Los_textiles" data-name="Los textiles" transform="translate(1058 613)" fill="#12263f" font-size="20" font-family="Roboto-Black, Roboto" font-weight="800"><tspan x="-52.168" y="0">Los textiles</tspan></text>
    <text id="Procesos_textiles" data-name="Procesos textiles" transform="translate(1306 611)" fill="#12263f" font-size="20" font-family="Roboto-Black, Roboto" font-weight="800"><tspan x="-78.247" y="0">Procesos textiles</tspan></text>
    <path id="Trazado_773548" data-name="Trazado 773548" d="M-13911-9802.219h715" transform="translate(14337 10333)" fill="none" stroke="#707070" stroke-width="1"/>
    <path id="Trazado_773549" data-name="Trazado 773549" d="M-13553-9802.219v-63.12" transform="translate(14337 10333)" fill="none" stroke="#707070" stroke-width="1"/>
    <line id="Línea_317" data-name="Línea 317" y1="363" transform="translate(135.5 558.5)" fill="none" stroke="#707070" stroke-width="1"/>
    <line id="Línea_318" data-name="Línea 318" x1="37" transform="translate(135.5 603.5)" fill="none" stroke="#707070" stroke-width="1"/>
    <line id="Línea_319" data-name="Línea 319" x1="37" transform="translate(135.5 687.5)" fill="none" stroke="#707070" stroke-width="1"/>
    <line id="Línea_320" data-name="Línea 320" x1="37" transform="translate(135.5 764.5)" fill="none" stroke="#707070" stroke-width="1"/>
    <line id="Línea_321" data-name="Línea 321" x1="37" transform="translate(135.5 835.5)" fill="none" stroke="#707070" stroke-width="1"/>
    <line id="Línea_322" data-name="Línea 322" x1="37" transform="translate(135.5 923.5)" fill="none" stroke="#707070" stroke-width="1"/>
    <line id="Línea_323" data-name="Línea 323" y1="102" transform="translate(271.5 961.5)" fill="none" stroke="#707070" stroke-width="1"/>
    <line id="Línea_324" data-name="Línea 324" x2="83" transform="translate(230.5 1018.5)" fill="none" stroke="#707070" stroke-width="1"/>
    <line id="Línea_325" data-name="Línea 325" y1="35" transform="translate(410.5 624.5)" fill="none" stroke="#707070" stroke-width="1"/>
    <line id="Línea_326" data-name="Línea 326" x1="16" transform="translate(429.5 681.5)" fill="none" stroke="#707070" stroke-width="1"/>
    <line id="Línea_327" data-name="Línea 327" x1="16" transform="translate(429.5 724.5)" fill="none" stroke="#707070" stroke-width="1"/>
    <line id="Línea_328" data-name="Línea 328" x1="16" transform="translate(429.5 775.5)" fill="none" stroke="#707070" stroke-width="1"/>
    <line id="Línea_329" data-name="Línea 329" x1="16" transform="translate(429.5 837.5)" fill="none" stroke="#707070" stroke-width="1"/>
    <g id="Grupo_1069546" data-name="Grupo 1069546" transform="translate(783.5 734.926) rotate(90)">
      <path id="Trazado_772740" data-name="Trazado 772740" d="M0,0H21.4" transform="translate(0 5.559)" fill="none" stroke="#afafaf" stroke-width="2"/>
      <path id="Trazado_772741" data-name="Trazado 772741" d="M5.749,1.516,0,0,5.735,8.219,5.749,8.2l.014.017L11.5,0Z" transform="translate(16.857 11.498) rotate(-90)" fill="#afafaf"/>
    </g>
    <g id="Grupo_1069595" data-name="Grupo 1069595" transform="translate(783.5 808.924) rotate(90)">
      <path id="Trazado_772740-2" data-name="Trazado 772740" d="M0,0H21.4" transform="translate(0 5.559)" fill="none" stroke="#afafaf" stroke-width="2"/>
      <path id="Trazado_772741-2" data-name="Trazado 772741" d="M5.749,1.516,0,0,5.735,8.219,5.749,8.2l.014.017L11.5,0Z" transform="translate(16.857 11.498) rotate(-90)" fill="#afafaf"/>
    </g>
    <g id="Grupo_1069596" data-name="Grupo 1069596" transform="translate(783.5 896.926) rotate(90)">
      <path id="Trazado_772740-3" data-name="Trazado 772740" d="M0,0H21.4" transform="translate(0 5.559)" fill="none" stroke="#afafaf" stroke-width="2"/>
      <path id="Trazado_772741-3" data-name="Trazado 772741" d="M5.749,1.516,0,0,5.735,8.219,5.749,8.2l.014.017L11.5,0Z" transform="translate(16.857 11.498) rotate(-90)" fill="#afafaf"/>
    </g>
    <line id="Línea_330" data-name="Línea 330" y1="372" transform="translate(985.5 624.5)" fill="none" stroke="#707070" stroke-width="1"/>
    <line id="Línea_331" data-name="Línea 331" x1="23" transform="translate(985.5 690.5)" fill="none" stroke="#707070" stroke-width="1"/>
    <line id="Línea_332" data-name="Línea 332" x1="23" transform="translate(985.5 750.5)" fill="none" stroke="#707070" stroke-width="1"/>
    <line id="Línea_333" data-name="Línea 333" x1="23" transform="translate(985.5 940.5)" fill="none" stroke="#707070" stroke-width="1"/>
    <line id="Línea_334" data-name="Línea 334" x1="23" transform="translate(985.5 996.5)" fill="none" stroke="#707070" stroke-width="1"/>
    <line id="Línea_335" data-name="Línea 335" y1="102" transform="translate(1030.5 780.5)" fill="none" stroke="#707070" stroke-width="1"/>
    <line id="Línea_336" data-name="Línea 336" x1="24" transform="translate(1030.5 824.5)" fill="none" stroke="#707070" stroke-width="1"/>
    <line id="Línea_337" data-name="Línea 337" x1="24" transform="translate(1030.5 882.5)" fill="none" stroke="#707070" stroke-width="1"/>
    <line id="Línea_338" data-name="Línea 338" y2="74" transform="translate(1229.5 623.5)" fill="none" stroke="#707070" stroke-width="1"/>
    <line id="Línea_339" data-name="Línea 339" x1="23" transform="translate(1229.5 697.5)" fill="none" stroke="#707070" stroke-width="1"/>
    <line id="Línea_340" data-name="Línea 340" x1="23" transform="translate(1229.5 650.5)" fill="none" stroke="#707070" stroke-width="1"/>
    <line id="Línea_341" data-name="Línea 341" y2="179" transform="translate(1266.5 714.5)" fill="none" stroke="#707070" stroke-width="1"/>
    <line id="Línea_342" data-name="Línea 342" x1="48" transform="translate(1266.5 892.5)" fill="none" stroke="#707070" stroke-width="1"/>
    <line id="Línea_343" data-name="Línea 343" x1="48" transform="translate(1266.5 844.5)" fill="none" stroke="#707070" stroke-width="1"/>
    <line id="Línea_344" data-name="Línea 344" x1="48" transform="translate(1266.5 795.5)" fill="none" stroke="#707070" stroke-width="1"/>
    <line id="Línea_345" data-name="Línea 345" x1="48" transform="translate(1266.5 746.5)" fill="none" stroke="#707070" stroke-width="1"/>
  </g>
</svg>
